<?xml version="1.0" standalone="no"?>
<!DOCTYPE svg PUBLIC "-//W3C//DTD SVG 20010904//EN"
 "http://www.w3.org/TR/2001/REC-SVG-20010904/DTD/svg10.dtd">
<svg version="1.0" xmlns="http://www.w3.org/2000/svg"
 width="195.000000pt" height="195.000000pt" viewBox="0 0 195.000000 195.000000"
 preserveAspectRatio="xMidYMid meet">
<metadata>
Created by potrace 1.11, written by Peter Selinger 2001-2013
</metadata>
<g transform="translate(0.000000,195.000000) scale(0.100000,-0.100000)"
fill="#000000" stroke="none">
<path d="M0 975 l0 -975 975 0 975 0 0 975 0 975 -975 0 -975 0 0 -975z m709
475 c35 -6 85 -22 111 -35 78 -40 111 -88 148 -215 8 -26 9 -6 5 83 -9 172
-42 157 361 157 182 0 337 -4 345 -9 12 -7 14 -39 13 -157 0 -92 -5 -151 -12
-158 -6 -6 -48 -11 -98 -11 l-87 0 -2 -289 c-1 -174 -6 -293 -11 -298 -6 -6
-74 -10 -157 -11 -115 0 -149 3 -156 14 -5 8 -9 139 -8 299 l2 285 -80 0 c-51
0 -86 5 -96 13 -14 12 -16 -16 -16 -289 0 -176 -4 -306 -10 -312 -14 -14 -289
-13 -303 1 -8 8 -11 42 -9 96 2 77 1 84 -18 89 -29 7 -33 -3 -30 -93 2 -49 -1
-84 -8 -91 -18 -18 -302 -16 -314 2 -12 20 -11 550 2 629 14 86 38 139 90 195
65 70 130 98 264 114 6 0 39 -4 74 -9z"/>
<path d="M547 1399 c-64 -15 -115 -47 -156 -99 -66 -83 -71 -117 -71 -454 l0
-296 120 0 120 0 0 100 0 100 35 0 35 0 0 110 0 110 -35 0 -35 0 1 63 c1 84
10 110 42 125 28 13 62 4 79 -22 4 -6 8 -140 8 -298 l0 -288 121 0 120 0 -3
338 c-3 333 -3 338 -27 386 -53 107 -204 160 -354 125z"/>
<path d="M1020 1270 l0 -120 95 0 95 0 0 -300 0 -300 120 0 120 0 0 300 0 300
100 0 100 0 0 120 0 120 -315 0 -315 0 0 -120z"/>
<path d="M606 1074 c-7 -50 3 -70 28 -61 21 8 16 101 -6 105 -11 2 -17 -9 -22
-44z"/>
</g>
</svg>
